# xmcd
#
# Track frame offsets:
#	150
#	23258
#	55659
#	73192
#	93630
#	113653
#	129041
#	143056
#	170006
#	199544
#	222472
#	249130
#	278503
#	296588
#	314194
#
# Disc length: 4383
#
# Revision: 2
# Processed by: cddbd v1.5.1PL0 Copyright (c) Steve Scherf et al.
# Submitted via: EasyCDDAExtractor 7.0.5.4
# Normalized: r1:DSETVAR1
#
DISCID=d5111d0f
DTITLE=Various Artist - Baladas en Ingles
DYEAR=2000
DGENRE=Ballad
TTITLE0=Elton john - Sacrifice
TTITLE1=Eagles - Hotel California
TTITLE2=Nazareth - Love hurts
TTITLE3=Rolling Stones - Angie
TTITLE4=The animals - The house of the rising sun
TTITLE5=Kansas - Dust in the wind
TTITLE6=Simon and garfunkel - The sound of silence
TTITLE7=Shocking Blue - Demon Lover
TTITLE8=Bryan Adams - Everything i do i do it for you
TTITLE9=Foreigner - I want to know what love is
TTITLE10=Bryan Adams - Please Forgive me
TTITLE11=George Michael - Careless Whisper
TTITLE12=Lionel Ritchie - Say you, say me
TTITLE13=Lionel Ritchie - Lady
TTITLE14=Boyzone - Baby can i hold you tonigh
EXTD=
EXTT0=
EXTT1=
EXTT2=
EXTT3=
EXTT4=
EXTT5=
EXTT6=
EXTT7=
EXTT8=
EXTT9=
EXTT10=
EXTT11=
EXTT12=
EXTT13=
EXTT14=
PLAYORDER=
